<svg xmlns="http://www.w3.org/2000/svg" viewBox="0 0 360 640" width="360" height="640"><defs></defs><g><path d="M279 177Q310 222 291 276L272 313 289 354Q307 407 279 451L274 435Q290 391 274 360L256 315 275 273Q294 222 270 191Z" fill="#62543f" stroke="#101c29" stroke-width="1.6" stroke-linejoin="round"/><path d="M279 181L259 315 279 449" fill="none" stroke="#c9c9aa" stroke-width="1" opacity="1" stroke-linecap="round"/><path d="M278 198Q299 235 279 272M279 357Q297 399 278 432" fill="none" stroke="#baa879" stroke-width="2" opacity="1" stroke-linecap="round"/><path d="M255 301H271V327H255Z" fill="#899d8d" stroke="#101c29" stroke-width="1.6" stroke-linejoin="round"/><path d="M258 306L267 309M258 313L267 316M258 320L267 323" fill="none" stroke="#d4b986" stroke-width="1" opacity="1" stroke-linecap="round"/></g></svg>