<svg xmlns="http://www.w3.org/2000/svg" viewBox="0 0 360 640" width="360" height="640"><defs><linearGradient id="hair" x2="1" y2=".4"><stop stop-color="var(--hair,#263044)"/><stop offset=".45" stop-color="var(--hair,#263044)"/><stop offset="1" stop-color="#111925"/></linearGradient></defs><g><path d="M151 85L157 96 153 128 159 147 151 169 140 185 143 154 143 121ZM204 83L213 92 218 120 214 145 226 173 220 190 207 161 205 134 201 110Z" fill="url(#hair)" stroke="#101c29" stroke-width="1.5"/><path d="M148 112L148 151 145 169M211 110L210 139 219 173" fill="none" stroke="#e0d6bb" opacity=".25" stroke-width="1"/><path d="M151 78Q140 53 157 43Q180 27 203 45Q218 57 210 83L207 117 199 98 197 69Q183 74 172 58L156 85 155 115 147 100Z" fill="url(#hair)" stroke="#101c29" stroke-width="1.6" stroke-linejoin="round"/><path d="M155 62Q172 41 192 48M175 51L200 63M153 82L150 102" fill="none" stroke="#e0d6bb" stroke-width="1" opacity="0.3" stroke-linecap="round"/></g></svg>