<svg xmlns="http://www.w3.org/2000/svg" viewBox="0 0 360 640" width="360" height="640"><defs><linearGradient id="cloth" x2="1" y2=".8"><stop stop-color="#15232c"/><stop offset=".5" stop-color="#354751"/><stop offset="1" stop-color="#101c26"/></linearGradient><pattern id="mail" width="6" height="5" patternUnits="userSpaceOnUse"><rect width="6" height="5" fill="#253d44"/><path d="M0 0Q3 7 6 0M-3 3Q0 8 3 3M3 3Q6 8 9 3" fill="none" stroke="#789288" stroke-width=".7"/></pattern></defs><g><path d="M150 309L173 313 175 362 163 422 159 521 139 522 141 414 144 359ZM187 313L211 309 218 414 213 521 193 521 191 423 182 362Z" fill="url(#cloth)" stroke="#101c29" stroke-width="1.6" stroke-linejoin="round"/><path d="M145 333L167 337 164 391 146 395ZM191 337L211 332 216 395 196 390Z" fill="url(#mail)" stroke="#101c29" stroke-width="1.6" stroke-linejoin="round"/><path d="M145 413L163 415M196 415L217 413M144 436L159 438M197 438L214 436" fill="none" stroke="#b8a27c" stroke-width="2" opacity="1" stroke-linecap="round"/></g></svg>