<svg xmlns="http://www.w3.org/2000/svg" viewBox="0 0 360 640" width="360" height="640"><title>plate-b-torso · silhouette proxy M6.5.1</title><defs><linearGradient id="steel" x1="0" y1="0" x2="1" y2=".3"><stop stop-color="#20262e"/><stop offset=".28" stop-color="#505962"/><stop offset=".48" stop-color="#8a9395"/><stop offset=".55" stop-color="#525d65"/><stop offset="1" stop-color="#202832"/></linearGradient><linearGradient id="dark" x2=".8" y2="1"><stop stop-color="#606a71"/><stop offset=".35" stop-color="#343d47"/><stop offset="1" stop-color="#171e29"/></linearGradient><linearGradient id="cloth" x2="1" y2=".3"><stop stop-color="#2e2029"/><stop offset=".45" stop-color="var(--dye,#61414a)"/><stop offset="1" stop-color="#29222b"/></linearGradient></defs><g><path d="M150 131L166 139 195 139 211 131 227 152 230 193 216 237 219 277 229 306 218 330 201 343 180 326 159 343 140 329 132 306 141 278 144 237 131 193 134 153Z" fill="url(#dark)" stroke="#15191e" stroke-width="1.6" stroke-linejoin="round" stroke-linecap="round"/><path d="M151 145L173 155 186 155 210 145 222 173 210 215 183 232 151 214 140 173Z" fill="url(#steel)" stroke="#15191e" stroke-width="1.6" stroke-linejoin="round" stroke-linecap="round"/><path d="M148 181L177 202 214 179 211 209 180 226 151 208Z" fill="url(#dark)" stroke="#15191e" stroke-width="1.6" stroke-linejoin="round" stroke-linecap="round"/><path d="M153 224L180 241 209 224 215 262 180 276 148 262Z" fill="url(#steel)" stroke="#15191e" stroke-width="1.6" stroke-linejoin="round" stroke-linecap="round"/><path d="M147 272L169 280 171 325 156 341 135 319ZM192 280L216 272 226 319 205 341 190 325Z" fill="url(#dark)" stroke="#15191e" stroke-width="1.6" stroke-linejoin="round" stroke-linecap="round"/><path d="M171 273L190 273 190 335 180 350 170 335Z" fill="url(#cloth)" stroke="#15191e" stroke-width="1.6" stroke-linejoin="round" stroke-linecap="round"/><path d="M139 164L150 145M220 164L211 145M150 223L180 239 212 223M148 260L180 273 214 260" fill="none" stroke="#9e8665" stroke-width="1.4" stroke-linejoin="round" stroke-linecap="round"/><path d="M157 158L163 174M205 193L200 200M155 283L151 301" fill="none" stroke="#929b9c" stroke-width="0.9" stroke-linejoin="round" stroke-linecap="round"/></g></svg>
