<svg xmlns="http://www.w3.org/2000/svg" viewBox="0 0 360 640" width="360" height="640"><title>plate-a-helmet · silhouette proxy M6.5.1</title><defs><linearGradient id="steel" x1="0" y1="0" x2="1" y2=".3"><stop stop-color="#20262e"/><stop offset=".28" stop-color="#505962"/><stop offset=".48" stop-color="#8a9395"/><stop offset=".55" stop-color="#525d65"/><stop offset="1" stop-color="#202832"/></linearGradient><linearGradient id="dark" x2=".8" y2="1"><stop stop-color="#606a71"/><stop offset=".35" stop-color="#343d47"/><stop offset="1" stop-color="#171e29"/></linearGradient><linearGradient id="cloth" x2="1" y2=".3"><stop stop-color="#2e2029"/><stop offset=".45" stop-color="var(--dye,#61414a)"/><stop offset="1" stop-color="#29222b"/></linearGradient></defs><g><path d="M156 61Q155 45 169 37L180 31 191 37Q204 45 204 61L202 101 190 118 180 123 169 117 158 102Z" fill="url(#steel)" stroke="#15191e" stroke-width="1.6" stroke-linejoin="round" stroke-linecap="round"/><path d="M159 67L180 72 201 67 199 96 180 113 161 96Z" fill="url(#dark)" stroke="#15191e" stroke-width="1.6" stroke-linejoin="round" stroke-linecap="round"/><path d="M162 71L177 74 177 79 162 76ZM183 74L198 71 198 76 183 79Z" fill="#10161b" stroke="#15191e" stroke-width="1.6" stroke-linejoin="round" stroke-linecap="round"/><path d="M180 42L185 66 184 103 180 114 176 103 175 66Z" fill="#68747b" stroke="#15191e" stroke-width="1.6" stroke-linejoin="round" stroke-linecap="round"/><path d="M163 89L172 92M163 95L172 98M188 92L197 89M188 98L197 95" fill="none" stroke="#171e25" stroke-width="1.8" stroke-linejoin="round" stroke-linecap="round"/><path d="M164 49L174 41M164 55L169 53M191 101L196 96" fill="none" stroke="#9c9787" stroke-width="1" stroke-linejoin="round" stroke-linecap="round"/></g></svg>
