<svg xmlns="http://www.w3.org/2000/svg" viewBox="0 0 360 640" width="360" height="640"><title>plate-a-shoulders · silhouette proxy M6.5.1</title><defs><linearGradient id="steel" x1="0" y1="0" x2="1" y2=".3"><stop stop-color="#20262e"/><stop offset=".28" stop-color="#505962"/><stop offset=".48" stop-color="#8a9395"/><stop offset=".55" stop-color="#525d65"/><stop offset="1" stop-color="#202832"/></linearGradient><linearGradient id="dark" x2=".8" y2="1"><stop stop-color="#606a71"/><stop offset=".35" stop-color="#343d47"/><stop offset="1" stop-color="#171e29"/></linearGradient><linearGradient id="cloth" x2="1" y2=".3"><stop stop-color="#2e2029"/><stop offset=".45" stop-color="var(--dye,#61414a)"/><stop offset="1" stop-color="#29222b"/></linearGradient></defs><g><path d="M149 142Q135 139 123 151L114 164 114 182 137 190 154 171ZM211 142Q226 139 238 151L247 164 247 182 223 190 207 171Z" fill="url(#steel)" stroke="#15191e" stroke-width="1.6" stroke-linejoin="round" stroke-linecap="round"/><path d="M115 178L139 181 143 196 116 191ZM220 181L246 178 244 191 217 196Z" fill="url(#dark)" stroke="#15191e" stroke-width="1.6" stroke-linejoin="round" stroke-linecap="round"/><path d="M119 163Q134 150 146 151M215 151Q228 150 242 163M116 187L138 191M222 191L244 187" fill="none" stroke="#ab9471" stroke-width="1.3" stroke-linejoin="round" stroke-linecap="round"/></g></svg>
